<svg xmlns="http://www.w3.org/2000/svg" xmlns:xlink="http://www.w3.org/1999/xlink" version="1.1" width="1000" height="1000" viewBox="0 0 1000 1000" xml:space="preserve">
<desc>Created with Fabric.js 3.5.0</desc>
<defs>
</defs>
<rect x="0" y="0" width="100%" height="100%" fill="rgba(255,255,255,0)"/>
<g transform="matrix(0.6998 0 0 0.6998 499.9811 499.9756)" id="454437">
<path style="stroke: none; stroke-width: 1; stroke-dasharray: none; stroke-linecap: butt; stroke-dashoffset: 0; stroke-linejoin: miter; stroke-miterlimit: 4; is-custom-font: none; font-file-url: none; fill: rgb(255,255,255); fill-rule: nonzero; opacity: 1;" vector-effect="non-scaling-stroke" transform=" translate(-387, -500.1081)" d="M 0 359 c 0 -42 8.8 -83.7 26.5 -125 s 43 -79.7 76 -115 s 76.3 -64 130 -86 S 345.7 0 411 0 c 106 0 193 32.7 261 98 s 102 142.3 102 231 c 0 114 -28.8 208.2 -86.5 282.5 S 555.3 723 464 723 c -30 0 -58.2 -7 -84.5 -21 s -44.8 -31 -55.5 -51 l -40 158 c -3.3 12.7 -7.7 25.5 -13 38.5 S 259.8 873 253.5 885 c -6.3 12 -12.7 23.3 -19 34 s -12.7 20.7 -19 30 s -11.8 17.2 -16.5 23.5 s -9 11.8 -13 16.5 l -6 8 c -2 2.7 -4.7 3.7 -8 3 s -5.3 -2.7 -6 -6 c 0 -0.7 -0.5 -5.3 -1.5 -14 s -2 -17.8 -3 -27.5 s -2 -22.2 -3 -37.5 s -1.3 -30.2 -1 -44.5 s 1.3 -30.2 3 -47.5 s 4.2 -33.3 7.5 -48 c 7.3 -31.3 32 -135.7 74 -313 c -5.3 -10.7 -9.7 -23.5 -13 -38.5 s -5 -27.2 -5 -36.5 l -1 -15 c 0 -42.7 10.8 -78.2 32.5 -106.5 S 303.3 223 334 223 c 24.7 0 43.8 8.2 57.5 24.5 S 412 284.3 412 309 c 0 15.3 -2.8 34.2 -8.5 56.5 s -13.2 48 -22.5 77 s -16 52.5 -20 70.5 c -6.7 30 -0.8 56 17.5 78 s 42.8 33 73.5 33 c 52.7 0 96.2 -29.8 130.5 -89.5 S 634 402.7 634 318 c 0 -64.7 -21 -117.5 -63 -158.5 S 470.3 98 395 98 c -84 0 -152.2 27 -204.5 81 S 112 297.7 112 373 c 0 44.7 12.7 82.3 38 113 c 8.7 10 11.3 20.7 8 32 c -1.3 3.3 -3.3 11 -6 23 s -4.7 19.7 -6 23 c -1.3 7.3 -4.7 12.2 -10 14.5 s -11.3 2.2 -18 -0.5 c -39.3 -16 -68.8 -43.5 -88.5 -82.5 S 0 411 0 359 z" stroke-linecap="round"/>
</g>
</svg>