<svg xmlns="http://www.w3.org/2000/svg" xmlns:xlink="http://www.w3.org/1999/xlink" version="1.1" width="1000" height="1000" viewBox="0 0 1000 1000" xml:space="preserve">
<desc>Created with Fabric.js 3.5.0</desc>
<defs>
</defs>
<rect x="0" y="0" width="100%" height="100%" fill="rgba(255,255,255,0)"/>
<g transform="matrix(33.3333 0 0 33.3333 499.9997 499.9997)" id="526845">
<path style="stroke: none; stroke-width: 1; stroke-dasharray: none; stroke-linecap: butt; stroke-dashoffset: 0; stroke-linejoin: miter; stroke-miterlimit: 4; is-custom-font: none; font-file-url: none; fill: rgb(255,255,255); fill-rule: nonzero; opacity: 1;" vector-effect="non-scaling-stroke" transform=" translate(-12.001, -11.941)" d="M 12.001 2.002 c -5.522 0 -9.999 4.477 -9.999 9.999 c 0 4.99 3.656 9.126 8.437 9.879 v -6.988 h -2.54 v -2.891 h 2.54 V 9.798 c 0 -2.508 1.493 -3.891 3.776 -3.891 c 1.094 0 2.24 0.195 2.24 0.195 v 2.459 h -1.264 c -1.24 0 -1.628 0.772 -1.628 1.563 v 1.875 h 2.771 l -0.443 2.891 h -2.328 v 6.988 C 18.344 21.129 22 16.992 22 12.001 c 0 -5.522 -4.477 -9.999 -9.999 -9.999 z" stroke-linecap="round"/>
</g>
</svg>